<?xml version="1.0" encoding="UTF-8" standalone="no"?>
<svg
   xmlns:dc="http://purl.org/dc/elements/1.1/"
   xmlns:cc="http://creativecommons.org/ns#"
   xmlns:rdf="http://www.w3.org/1999/02/22-rdf-syntax-ns#"
   xmlns:svg="http://www.w3.org/2000/svg"
   xmlns="http://www.w3.org/2000/svg"
   xmlns:sodipodi="http://sodipodi.sourceforge.net/DTD/sodipodi-0.dtd"
   xmlns:inkscape="http://www.inkscape.org/namespaces/inkscape"
   version="1.1"
   id="svg2"
   xml:space="preserve"
   width="84.519997"
   height="104.29333"
   viewBox="0 0 84.519997 104.29333"
   sodipodi:docname="BlockI-Logo-TM-Full-Color-PMS.eps"><metadata
     id="metadata8"><rdf:RDF><cc:Work
         rdf:about=""><dc:format>image/svg+xml</dc:format><dc:type
           rdf:resource="http://purl.org/dc/dcmitype/StillImage" /></cc:Work></rdf:RDF></metadata><defs
     id="defs6" /><sodipodi:namedview
     pagecolor="#ffffff"
     bordercolor="#666666"
     borderopacity="1"
     objecttolerance="10"
     gridtolerance="10"
     guidetolerance="10"
     inkscape:pageopacity="0"
     inkscape:pageshadow="2"
     inkscape:window-width="640"
     inkscape:window-height="480"
     id="namedview4" /><g
     id="g10"
     inkscape:groupmode="layer"
     inkscape:label="ink_ext_XXXXXX"
     transform="matrix(1.3333333,0,0,-1.3333333,0,104.29333)"><g
       id="g12"
       transform="scale(0.1)"><path
         d="m 421.191,180.508 h 90.254 V 30.0898 H 30.0781 V 180.508 h 90.2659 c 16.597,0 30.078,13.476 30.078,30.09 v 361.015 c 0,16.621 -13.481,30.086 -30.078,30.086 H 30.0781 V 752.121 H 511.445 V 601.699 h -90.254 c -16.621,0 -30.086,-13.465 -30.086,-30.086 V 210.598 c 0,-16.614 13.465,-30.09 30.086,-30.09 z M 541.523,571.613 V 782.207 H 0 V 571.613 H 120.344 V 210.598 L 0,210.598 V 0 H 541.523 V 210.598 H 421.191 v 361.015 h 120.332"
         style="fill:#192847;fill-opacity:1;fill-rule:nonzero;stroke:none"
         id="path14" /><path
         d="m 421.191,601.699 h 90.254 V 752.121 H 30.0781 V 601.699 h 90.2659 c 16.597,0 30.078,-13.465 30.078,-30.086 V 210.598 c 0,-16.614 -13.481,-30.09 -30.078,-30.09 H 30.0781 V 30.0898 H 511.445 V 180.508 h -90.254 c -16.621,0 -30.086,13.476 -30.086,30.09 v 361.015 c 0,16.621 13.465,30.086 30.086,30.086"
         style="fill:#f14c33;fill-opacity:1;fill-rule:nonzero;stroke:none"
         id="path16" /><path
         d="M 626.484,30.0977 617.52,8.85938 608.867,30.0977 h -7.519 V 0 h 4.597 v 25.5078 h 0.121 L 616.105,0 h 2.793 l 10.301,25.5078 h 0.125 V 0 h 4.594 v 30.0977 h -7.434"
         style="fill:#192847;fill-opacity:1;fill-rule:nonzero;stroke:none"
         id="path18" /><path
         d="m 571.523,25.5078 h 9.864 V 0 h 4.59 v 25.5078 h 9.863 v 4.5899 h -24.317 v -4.5899"
         style="fill:#192847;fill-opacity:1;fill-rule:nonzero;stroke:none"
         id="path20" /></g></g></svg>
