<svg width="803" height="209" viewBox="0 0 803 209" fill="none" xmlns="http://www.w3.org/2000/svg">
<g clip-path="url(#clip0)">
<path d="M112.317 160.446H136.381V200.554H8.02076V160.446H32.0904C36.5165 160.446 40.1111 156.853 40.1111 152.42V56.1526C40.1111 51.7226 36.5165 48.1321 32.0904 48.1321H8.02076V8.02401H136.381V48.1321H112.317C107.886 48.1321 104.292 51.7226 104.292 56.1526V152.42C104.292 156.853 107.886 160.446 112.317 160.446V160.446ZM144.406 56.1526V-0.00185207H0V56.1526H32.0904V152.42H0V208.58H144.406V152.42H112.317V56.1526H144.406" fill="#192947"/>
<path d="M112.317 48.1321H136.381V8.02083H8.02075V48.1321H32.0904C36.5165 48.1321 40.1111 51.7205 40.1111 56.1548V152.426C40.1111 156.85 36.5165 160.446 32.0904 160.446H8.02075V200.554H136.381V160.446H112.317C107.885 160.446 104.292 156.85 104.292 152.426V56.1548C104.292 51.7205 107.885 48.1321 112.317 48.1321" fill="#F0412F"/>
<path d="M257.66 153.595V67.1085H276.688V153.595H257.66" fill="#192947"/>
<path d="M299.294 153.595V67.1085H318.32V136.296H361.44V153.595H299.294Z" fill="#192947"/>
<path d="M375.378 153.595V67.1085H394.405V136.296H437.527V153.595H375.378Z" fill="#192947"/>
<path d="M451.882 153.595V67.1085H470.908V153.595H451.882Z" fill="#192947"/>
<path d="M554.177 153.595L512.292 98.6147V153.595H493.513V67.1085H511.06L551.582 120.356V67.1085H570.363V153.595H554.177Z" fill="#192947"/>
<path d="M660.392 110.349C660.392 95.5263 649.523 83.1672 634.2 83.1672C618.878 83.1672 608.251 95.2764 608.251 110.104V110.349C608.251 125.177 619.126 137.532 634.445 137.532C649.768 137.532 660.392 125.423 660.392 110.599V110.349ZM634.2 155.076C607.512 155.076 588.36 135.184 588.36 110.599V110.349C588.36 85.7642 607.758 65.6262 634.445 65.6262C661.136 65.6262 680.285 85.5162 680.285 110.104V110.349C680.285 134.94 660.888 155.076 634.2 155.076Z" fill="#192947"/>
<path d="M698.701 153.595V67.1085H717.733V153.595H698.701Z" fill="#192947"/>
<path d="M770.754 154.829C757.655 154.829 744.434 150.259 734.058 140.99L745.3 127.525C753.084 133.947 761.239 138.028 771.122 138.028C778.905 138.028 783.601 134.94 783.601 129.871V129.624C783.601 124.803 780.639 122.338 766.183 118.63C748.759 114.182 737.516 109.362 737.516 92.188V91.9411C737.516 76.2509 750.119 65.8731 767.786 65.8731C780.391 65.8731 791.14 69.8261 799.913 76.8674L790.025 91.2003C782.367 85.8882 774.831 82.6747 767.538 82.6747C760.25 82.6747 756.42 86.0111 756.42 90.211V90.4587C756.42 96.1431 760.127 97.995 775.079 101.825C792.623 106.398 802.508 112.698 802.508 127.773V128.02C802.508 145.191 789.409 154.829 770.754 154.829" fill="#192947"/>
<path d="M269.36 42.5176C260.291 42.5176 254.746 37.4553 254.746 27.518V8.22693H262.176V27.3253C262.176 32.8251 264.921 35.6709 269.459 35.6709C273.99 35.6709 276.739 32.9189 276.739 27.5671V8.22693H284.166V27.2786C284.166 37.502 278.424 42.5176 269.36 42.5176" fill="#192947"/>
<path d="M329.136 41.9864L312.787 20.5255V41.9864H305.456V8.22692H312.307L328.123 29.0129V8.22692H335.456V41.9864H329.136Z" fill="#192947"/>
<path d="M357.288 41.9864V8.22692H364.717V41.9864H357.288Z" fill="#192947"/>
<path d="M403.231 42.228H396.671L383.026 8.22693H391.223L400.053 32.0043L408.871 8.22693H416.882L403.231 42.228Z" fill="#192947"/>
<path d="M435.124 41.9864V8.22692H460.591V14.8361H442.506V21.6849H458.42V28.2911H442.506V35.3823H460.831V41.9864H435.124" fill="#192947"/>
<path d="M501.844 19.7527C501.844 16.5725 499.623 14.932 496.004 14.932H488.631V24.6245H496.151C499.767 24.6245 501.844 22.6953 501.844 19.8516V19.7527ZM501.697 41.9864L494.463 31.1846H488.631V41.9864H481.201V8.22692H496.633C504.593 8.22692 509.364 12.4249 509.364 19.3692V19.4663C509.364 24.9139 506.422 28.3378 502.129 29.9326L510.377 41.9864H501.697Z" fill="#192947"/>
<path d="M541.243 42.4707C536.132 42.4707 530.972 40.6843 526.921 37.0668L531.308 31.8118C534.345 34.32 537.529 35.9106 541.385 35.9106C544.425 35.9106 546.257 34.7053 546.257 32.7283V32.6294C546.257 30.7524 545.097 29.7857 539.457 28.3378C532.654 26.6034 528.27 24.7213 528.27 18.0184V17.9216C528.27 11.7967 533.188 7.74483 540.086 7.74483C545.001 7.74483 549.201 9.28958 552.627 12.0362L548.763 17.6331C545.774 15.5601 542.835 14.3049 539.985 14.3049C537.145 14.3049 535.649 15.607 535.649 17.2475V17.3435C535.649 19.5621 537.094 20.2839 542.934 21.7806C549.777 23.5651 553.641 26.0234 553.641 31.9086V32.0043C553.641 38.7073 548.529 42.4707 541.243 42.4707Z" fill="#192947"/>
<path d="M573.678 41.9864V8.22692H581.104V41.9864H573.678Z" fill="#192947"/>
<path d="M617.368 15.0779V41.9864H609.944V15.0779H599.67V8.22692H627.64V15.0779H617.368" fill="#192947"/>
<path d="M664.704 28.5316V41.9864H657.28V28.6764L644.307 8.22692H652.984L661.037 21.7806L669.237 8.22692H677.677L664.704 28.5316" fill="#192947"/>
<path d="M748.53 25.1088C748.53 19.3204 744.29 14.4977 738.306 14.4977C732.327 14.4977 728.181 19.2266 728.181 25.0099V25.1088C728.181 30.895 732.423 35.7178 738.405 35.7178C744.383 35.7178 748.53 30.9918 748.53 25.2024V25.1088ZM738.306 42.5666C727.887 42.5666 720.415 34.8013 720.415 25.2024V25.1088C720.415 15.5102 727.983 7.64882 738.405 7.64882C748.823 7.64882 756.295 15.4142 756.295 25.0099V25.1088C756.295 34.7053 748.724 42.5666 738.306 42.5666Z" fill="#192947"/>
<path d="M783.628 14.979V22.1662H799.732V28.9191H783.628V41.9864H776.199V8.22692H801.903V14.979H783.628" fill="#192947"/>
<path d="M257.603 191.202V178.75H262.397V191.077C262.397 194.627 264.171 196.463 267.096 196.463C270.024 196.463 271.798 194.69 271.798 191.234V178.75H276.592V191.046C276.592 197.645 272.886 200.884 267.035 200.884C261.183 200.884 257.603 197.617 257.603 191.202Z" fill="#192947"/>
<path d="M304.077 189.336C306.411 189.336 307.749 188.091 307.749 186.253V186.19C307.749 184.135 306.315 183.078 303.981 183.078H299.219V189.336H304.077ZM294.424 178.75H304.387C307.157 178.75 309.307 179.529 310.739 180.961C311.952 182.175 312.605 183.888 312.605 185.942V186.005C312.605 189.52 310.707 191.732 307.936 192.76L313.259 200.541H307.656L302.984 193.57H299.219V200.541H294.424V178.75" fill="#192947"/>
<path d="M340.091 191.544H334.547V196.338H340.245C342.363 196.338 343.64 195.593 343.64 193.973V193.911C343.64 192.447 342.546 191.544 340.091 191.544V191.544ZM342.424 185.195C342.424 183.763 341.304 182.953 339.28 182.953H334.547V187.56H338.971C341.088 187.56 342.424 186.874 342.424 185.258V185.195ZM329.877 178.75H339.995C342.488 178.75 344.448 179.435 345.693 180.683C346.688 181.677 347.186 182.89 347.186 184.385V184.447C347.186 186.906 345.877 188.275 344.322 189.148C346.845 190.114 348.402 191.575 348.402 194.502V194.565C348.402 198.549 345.162 200.541 340.245 200.541H329.877V178.75" fill="#192947"/>
<path d="M377.815 191.421L374.92 184.354L372.024 191.421H377.815ZM372.77 178.597H377.194L386.533 200.541H381.519L379.527 195.653H370.312L368.32 200.541H363.432L372.77 178.597Z" fill="#192947"/>
<path d="M402.839 178.75H407.261L417.471 192.169V178.75H422.202V200.541H418.125L407.57 186.69V200.541H402.839V178.75" fill="#192947"/>
<path d="M452.892 191.421L449.996 184.354L447.1 191.421H452.892ZM447.85 178.597H452.271L461.61 200.541H456.596L454.604 195.653H445.391L443.399 200.541H438.511L447.85 178.597Z" fill="#192947"/>
<path d="M476.236 188.619H485.823V193.164H476.236V188.619Z" fill="#192947"/>
<path d="M500.732 189.708V189.645C500.732 183.451 505.401 178.378 512.092 178.378C516.201 178.378 518.662 179.748 520.686 181.739L517.636 185.258C515.956 183.732 514.241 182.796 512.065 182.796C508.39 182.796 505.745 185.849 505.745 189.583V189.645C505.745 193.383 508.326 196.494 512.065 196.494C514.553 196.494 516.081 195.499 517.79 193.942L520.844 197.023C518.601 199.421 516.108 200.916 511.908 200.916C505.494 200.916 500.732 195.966 500.732 189.708" fill="#192947"/>
<path d="M537.617 178.75H542.412V187.374H551.251V178.75H556.046V200.541H551.251V191.794H542.412V200.541H537.617V178.75" fill="#192947"/>
<path d="M586.736 191.421L583.84 184.354L580.947 191.421H586.736ZM581.691 178.597H586.112L595.451 200.541H590.44L588.448 195.653H579.232L577.24 200.541H572.353L581.691 178.597" fill="#192947"/>
<path d="M611.76 178.75H616.928L622.656 187.966L628.384 178.75H633.549V200.541H628.787V186.315L622.656 195.624H622.534L616.462 186.409V200.541H611.76V178.75" fill="#192947"/>
<path d="M660.317 189.739C662.717 189.739 664.117 188.307 664.117 186.44V186.378C664.117 184.229 662.624 183.078 660.224 183.078H656.523V189.739H660.317ZM651.728 178.75H660.632C665.829 178.75 668.973 181.833 668.973 186.284V186.346C668.973 191.39 665.05 194.004 660.162 194.004H656.523V200.541H651.728V178.75" fill="#192947"/>
<path d="M695.802 191.421L692.909 184.354L690.013 191.421H695.802ZM690.76 178.597H695.181L704.519 200.541H699.509L697.517 195.653H688.301L686.309 200.541H681.421L690.76 178.597" fill="#192947"/>
<path d="M721.047 178.75H725.842V200.541H721.047V178.75" fill="#192947"/>
<path d="M743.271 189.708V189.645C743.271 183.451 748.095 178.378 754.695 178.378C758.618 178.378 760.983 179.435 763.255 181.364L760.236 185.008C758.554 183.607 757.06 182.796 754.538 182.796C751.052 182.796 748.282 185.88 748.282 189.583V189.645C748.282 193.629 751.02 196.556 754.882 196.556C756.626 196.556 758.183 196.122 759.396 195.249V192.138H754.57V187.997H764.034V197.461C761.794 199.359 758.711 200.916 754.727 200.916C747.94 200.916 743.271 196.153 743.271 189.708" fill="#192947"/>
<path d="M781.588 178.75H786.007L796.217 192.169V178.75H800.951V200.541H796.871L786.319 186.69V200.541H781.588V178.75" fill="#192947"/>
</g>
<defs>
<clipPath id="clip0">
<rect width="802.5" height="208.58" fill="white"/>
</clipPath>
</defs>
</svg>
